<svg width="17" height="17" viewBox="0 0 17 17" fill="none" xmlns="http://www.w3.org/2000/svg">
<path d="M14.4369 9.22474C14.4712 8.97474 14.4883 8.71641 14.4883 8.44141C14.4883 8.17474 14.4712 7.90807 14.4283 7.65807L16.1675 6.34141C16.3217 6.22474 16.3645 5.99974 16.2703 5.83307L14.6254 3.06641C14.5226 2.88307 14.3084 2.82474 14.1199 2.88307L12.0724 3.68307C11.644 3.36641 11.1899 3.09974 10.6845 2.89974L10.3761 0.783073C10.3418 0.583073 10.1705 0.441406 9.96484 0.441406H6.67505C6.46944 0.441406 6.30667 0.583073 6.2724 0.783073L5.96398 2.89974C5.45852 3.09974 4.99589 3.37474 4.5761 3.68307L2.52856 2.88307C2.34008 2.81641 2.1259 2.88307 2.0231 3.06641L0.38677 5.83307C0.283965 6.00807 0.318233 6.22474 0.489576 6.34141L2.22871 7.65807C2.18587 7.90807 2.1516 8.18307 2.1516 8.44141C2.1516 8.69974 2.16874 8.97474 2.21157 9.22474L0.472442 10.5414C0.318233 10.6581 0.275397 10.8831 0.369636 11.0497L2.01453 13.8164C2.11733 13.9997 2.33151 14.0581 2.51999 13.9997L4.56754 13.1997C4.99589 13.5164 5.44995 13.7831 5.95541 13.9831L6.26383 16.0997C6.30667 16.2997 6.46944 16.4414 6.67505 16.4414H9.96484C10.1705 16.4414 10.3418 16.2997 10.3675 16.0997L10.6759 13.9831C11.1814 13.7831 11.644 13.5164 12.0638 13.1997L14.1113 13.9997C14.2998 14.0664 14.514 13.9997 14.6168 13.8164L16.2617 11.0497C16.3645 10.8664 16.3217 10.6581 16.1589 10.5414L14.4369 9.22474ZM8.31995 11.4414C6.62365 11.4414 5.23577 10.0914 5.23577 8.44141C5.23577 6.79141 6.62365 5.44141 8.31995 5.44141C10.0162 5.44141 11.4041 6.79141 11.4041 8.44141C11.4041 10.0914 10.0162 11.4414 8.31995 11.4414Z" fill="white"/>
</svg>
